<svg xmlns="http://www.w3.org/2000/svg" version="1.1" xmlns:xlink="http://www.w3.org/1999/xlink" xmlns:svgjs="http://svgjs.com/svgjs" width="1920" height="1080" preserveAspectRatio="none" viewBox="0 0 1920 1080">
    <g mask="url(&quot;#SvgjsMask1012&quot;)" fill="none">
        <path d="M1984 1080L0 1080 L0 842.42Q61.37 807.78, 96 869.15Q162.17 839.32, 192 905.49Q232.38 849.87, 288 890.24Q362.58 804.82, 448 879.4Q508.25 843.64, 544 903.89Q597.64 861.53, 640 915.18Q662.72 841.9, 736 864.62Q789.8 822.42, 832 876.22Q895.7 779.92, 992 843.62Q1100.13 791.75, 1152 899.89Q1184.88 836.76, 1248 869.64Q1311.06 772.7, 1408 835.76Q1514.41 782.17, 1568 888.59Q1627.21 787.8, 1728 847.01Q1836 795.01, 1888 903.02Q1929.12 848.13, 1984 889.25z" fill="rgba(209, 213, 220, 1)"></path>
        <path d="M1984 1080L0 1080 L0 980.17Q69.81 889.98, 160 959.79Q190.78 894.57, 256 925.34Q294.97 868.31, 352 907.28Q448.66 843.94, 512 940.61Q536.63 869.25, 608 893.88Q694.38 820.26, 768 906.64Q832.03 874.67, 864 938.71Q934.36 849.07, 1024 919.43Q1095.66 831.1, 1184 902.76Q1293.49 852.25, 1344 961.73Q1429.35 887.08, 1504 972.42Q1552.83 861.25, 1664 910.08Q1750.3 836.38, 1824 922.67Q1929.65 868.32, 1984 973.97z" fill="#25467d"></path>
        <path d="M1952 1080L0 1080 L0 1037.18Q37.06 978.24, 96 1015.29Q129.18 952.47, 192 985.65Q229.24 926.88, 288 964.12Q387.25 903.37, 448 1002.61Q501.01 959.62, 544 1012.63Q601.84 910.47, 704 968.31Q812.46 916.76, 864 1025.22Q923.94 925.16, 1024 985.1Q1129.52 930.62, 1184 1036.14Q1257.45 949.6, 1344 1023.05Q1383.94 966.99, 1440 1006.93Q1471.26 942.18, 1536 973.44Q1608.51 885.96, 1696 958.47Q1773.32 939.79, 1792 1017.11Q1880.68 945.79, 1952 1034.47z" fill="#356cb1"></path>
        <path d="M2080 1080L0 1080 L0 1094.16Q31.13 1029.29, 96 1060.42Q158.09 962.51, 256 1024.61Q365.19 973.8, 416 1082.99Q452.96 1023.95, 512 1060.91Q541.84 994.75, 608 1024.59Q667.15 987.74, 704 1046.89Q812.44 995.33, 864 1103.77Q933.39 1013.16, 1024 1082.55Q1062.22 1024.77, 1120 1062.99Q1186.52 1033.51, 1216 1100.04Q1251.38 1039.41, 1312 1074.79Q1336.19 1002.98, 1408 1027.17Q1497.59 956.76, 1568 1046.35Q1644.55 1026.89, 1664 1103.44Q1708.88 988.32, 1824 1033.2Q1883.67 996.87, 1920 1056.54Q2023.36 999.89, 2080 1103.25z" fill="white"></path>
    </g>
    <defs>
        <mask id="SvgjsMask1012">
            <rect width="1920" height="1080" fill="#ffffff"></rect>
        </mask>
    </defs>
</svg>