<?xml version="1.0" standalone="no"?>
<!DOCTYPE svg PUBLIC "-//W3C//DTD SVG 20010904//EN"
 "http://www.w3.org/TR/2001/REC-SVG-20010904/DTD/svg10.dtd">
<svg version="1.0" xmlns="http://www.w3.org/2000/svg"
 width="2000.000000pt" height="1500.000000pt" viewBox="0 0 2000.000000 1500.000000"
 preserveAspectRatio="xMidYMid meet">

<g transform="translate(0.000000,1500.000000) scale(0.100000,-0.100000)"
fill="#291D9C" stroke="none">
<path d="M4760 9774 c-44 -7 -102 -25 -195 -59 -148 -55 -243 -69 -470 -69
-220 -1 -333 10 -565 56 -217 42 -299 32 -468 -57 -260 -136 -457 -451 -529
-845 -24 -134 -24 -481 0 -640 26 -164 77 -371 158 -633 116 -379 163 -593
194 -892 40 -379 77 -573 156 -808 84 -251 179 -419 300 -531 82 -76 149 -106
238 -106 130 0 216 62 252 183 20 64 21 85 16 251 -3 99 -13 235 -21 301 -18
140 -21 451 -6 593 13 120 39 226 80 328 31 78 103 208 144 259 l22 28 60 -79
c109 -145 188 -338 224 -547 25 -147 37 -312 50 -667 14 -398 42 -524 131
-605 44 -39 86 -50 173 -43 170 14 297 168 399 485 65 201 107 420 157 827 38
307 83 559 154 871 143 628 180 937 158 1302 -25 397 -103 666 -248 854 -139
181 -356 274 -564 243z m151 -184 c213 -40 365 -237 439 -570 34 -153 45 -287
45 -540 0 -358 -24 -512 -185 -1220 -45 -196 -95 -500 -130 -785 -58 -464
-116 -721 -210 -920 -62 -131 -148 -210 -209 -190 -23 7 -48 66 -61 145 -5 30
-14 179 -20 330 -13 361 -26 513 -55 684 -48 282 -158 533 -302 687 l-44 47
58 52 c32 28 90 71 129 96 98 61 119 119 64 174 -42 42 -101 22 -241 -81 -270
-200 -456 -493 -530 -838 -30 -141 -38 -550 -14 -746 9 -77 19 -212 22 -300 5
-132 3 -167 -10 -198 -33 -77 -108 -73 -198 10 -175 163 -323 575 -374 1043
-53 497 -88 676 -200 1035 -157 505 -203 755 -192 1060 13 351 112 612 306
806 168 167 271 195 531 145 208 -41 322 -51 560 -51 274 1 374 16 565 90 115
44 169 51 256 35z"/>
<path d="M4535 9405 c-34 -33 -34 -93 -2 -124 20 -18 42 -23 128 -31 141 -12
259 -49 259 -80 0 -34 -162 -99 -329 -130 -280 -53 -806 -77 -1031 -47 -101
13 -221 45 -238 62 -3 3 11 22 31 41 50 49 52 100 6 138 -48 41 -93 30 -155
-36 -46 -48 -64 -90 -64 -146 0 -114 114 -191 345 -234 93 -17 667 -17 825 0
389 43 602 102 709 198 144 129 84 306 -125 373 -89 28 -171 41 -262 41 -64 0
-76 -3 -97 -25z"/>
<path d="M6184 8576 c-162 -37 -290 -153 -342 -311 -92 -279 50 -557 328 -639
64 -19 203 -22 273 -6 98 21 229 108 286 189 l19 27 -57 46 -57 46 -56 -59
c-78 -82 -147 -113 -253 -114 -68 0 -89 4 -137 28 -138 68 -211 230 -178 392
33 165 149 265 305 265 34 0 82 -7 108 -16 57 -19 129 -81 164 -141 26 -45 26
-45 71 -39 25 3 51 6 58 6 11 0 14 32 14 160 l0 160 -80 0 -80 0 0 -50 0 -51
-46 35 c-91 70 -224 98 -340 72z"/>
<path d="M15693 8579 c-72 -21 -95 -99 -44 -150 25 -24 37 -29 81 -29 63 0
103 20 120 59 32 79 -60 149 -157 120z"/>
<path d="M11170 8496 l0 -76 80 0 80 0 0 -325 0 -325 -80 0 -80 0 0 -76 0 -76
293 5 c264 4 299 6 367 26 133 40 221 99 283 193 62 96 86 213 67 332 -29 183
-158 315 -365 372 -48 13 -121 18 -352 21 l-293 5 0 -76z m585 -90 c95 -25
165 -71 200 -131 68 -117 52 -318 -32 -401 -70 -70 -170 -104 -310 -104 l-93
0 0 325 0 325 93 0 c50 0 115 -6 142 -14z"/>
<path d="M8740 8360 l0 -90 -65 0 -65 0 0 -65 0 -65 64 0 64 0 4 -173 c3 -170
4 -175 33 -233 20 -39 45 -68 74 -89 41 -29 47 -30 149 -30 97 0 112 3 160 28
28 15 52 30 52 33 0 5 -50 106 -56 113 -2 2 -21 -4 -44 -13 -22 -9 -63 -16
-91 -16 -41 0 -54 5 -74 26 -30 33 -37 78 -33 229 l3 120 98 3 97 3 0 64 0 65
-100 0 -100 0 0 90 0 90 -85 0 -85 0 0 -90z"/>
<path d="M14190 8360 l0 -90 -70 0 -70 0 0 -65 0 -65 70 0 70 0 0 -158 c0
-180 11 -235 62 -296 17 -21 50 -47 72 -57 57 -26 178 -26 249 1 88 33 89 35
56 108 l-29 62 -40 -20 c-57 -29 -134 -27 -165 4 -31 31 -37 66 -33 221 l3
130 98 3 97 3 0 64 0 65 -100 0 -100 0 0 90 0 90 -85 0 -85 0 0 -90z"/>
<path d="M7125 8277 c-195 -51 -304 -211 -273 -402 22 -141 137 -242 304 -266
115 -16 252 19 341 87 l33 25 -25 42 c-14 23 -29 48 -34 56 -6 11 -16 8 -47
-12 -101 -66 -253 -77 -333 -24 -43 28 -80 90 -81 133 0 20 0 20 70 -3 53 -18
93 -24 158 -24 174 0 272 69 272 190 0 59 -10 82 -53 129 -61 64 -222 97 -332
69z m189 -148 c21 -16 26 -29 24 -52 -4 -41 -44 -69 -108 -75 -55 -5 -186 14
-195 28 -9 15 53 77 98 99 58 29 144 29 181 0z"/>
<path d="M8138 8277 c-55 -16 -108 -50 -163 -107 -21 -22 -43 -40 -47 -40 -4
0 -8 32 -8 70 l0 70 -150 0 -150 0 0 -65 0 -65 65 0 65 0 0 -190 0 -190 -65 0
-65 0 0 -70 0 -70 208 2 207 3 0 65 0 65 -57 3 -58 3 0 113 0 114 54 49 c118
108 225 119 290 30 18 -25 21 -46 24 -168 l4 -139 -61 0 -62 0 3 -67 3 -68
200 0 200 0 0 65 0 65 -57 3 -58 3 0 128 c0 184 -19 269 -74 329 -52 58 -160
83 -248 59z"/>
<path d="M9780 8276 c-59 -16 -112 -48 -177 -110 l-53 -49 0 77 0 76 -155 0
-155 0 0 -65 0 -65 70 0 70 0 0 -190 0 -190 -70 0 -70 0 0 -70 0 -70 225 0
225 0 0 70 0 70 -70 0 -70 0 0 114 0 114 48 42 c46 41 95 71 140 84 21 7 22 5
22 -53 l0 -61 75 0 75 0 0 145 0 145 -42 -1 c-24 0 -63 -6 -88 -13z"/>
<path d="M10290 8275 c-159 -45 -259 -162 -268 -315 -5 -91 8 -143 51 -206
112 -163 386 -197 575 -73 29 18 52 37 52 41 0 9 -60 108 -65 108 -2 0 -21
-11 -41 -25 -114 -78 -289 -72 -365 11 -27 29 -56 101 -45 111 3 3 31 -2 63
-12 115 -36 255 -35 330 4 109 56 141 168 76 264 -58 84 -233 128 -363 92z
m204 -150 c86 -80 -52 -151 -223 -114 -28 6 -53 15 -57 20 -10 17 41 73 87 96
64 33 156 32 193 -2z"/>
<path d="M12570 8277 c-122 -35 -223 -121 -256 -219 -27 -77 -25 -189 4 -253
64 -141 238 -222 416 -195 74 11 199 64 228 97 15 17 13 22 -17 70 l-34 52
-72 -37 c-127 -65 -269 -55 -338 23 -28 32 -51 99 -38 111 3 3 36 -4 73 -16
69 -21 191 -28 249 -14 219 51 235 295 24 369 -61 22 -184 28 -239 12z m194
-148 c21 -16 26 -29 24 -52 -4 -43 -45 -70 -115 -75 -63 -4 -171 12 -187 28
-13 13 45 74 94 100 51 28 149 27 184 -1z"/>
<path d="M13588 8277 c-54 -16 -112 -52 -174 -109 l-44 -41 0 72 0 71 -155 0
-155 0 0 -65 0 -65 70 0 70 0 0 -190 0 -190 -70 0 -70 0 0 -70 0 -70 210 0
210 0 0 70 0 70 -55 0 -55 0 0 115 0 114 38 37 c118 116 246 134 302 42 17
-29 20 -50 20 -170 l0 -138 -55 0 -55 0 0 -70 0 -70 200 0 200 0 0 70 0 70
-59 0 -59 0 -4 178 c-3 163 -5 181 -27 222 -13 25 -31 53 -40 64 -45 51 -159
76 -243 53z"/>
<path d="M14960 8279 c-30 -5 -89 -21 -131 -35 l-77 -25 16 -62 c8 -34 16 -64
18 -66 2 -2 31 7 66 19 89 31 232 39 282 15 42 -20 66 -59 66 -108 l0 -35 -62
20 c-92 29 -217 29 -285 -1 -202 -89 -182 -347 30 -391 89 -18 204 16 287 87
24 20 35 24 38 14 10 -29 65 -80 98 -91 39 -13 123 -5 149 14 16 11 16 16 0
69 -15 51 -19 56 -39 51 -15 -3 -29 1 -40 11 -13 14 -16 40 -16 159 0 97 -5
158 -15 193 -39 132 -187 194 -385 162z m195 -393 c70 -21 59 -51 -37 -101
-73 -38 -138 -49 -182 -31 -69 29 -71 102 -3 131 39 17 167 18 222 1z"/>
<path d="M16574 8281 c-47 -12 -126 -58 -182 -107 -28 -24 -53 -44 -56 -44 -3
0 -6 32 -6 70 l0 70 -150 0 -150 0 0 -65 0 -65 65 0 65 0 0 -190 0 -190 -65 0
-65 0 0 -70 0 -70 220 0 220 0 0 70 0 70 -70 0 -70 0 0 109 0 108 55 52 c55
52 137 97 155 86 6 -3 10 -31 10 -61 l0 -54 70 0 70 0 0 145 0 145 -42 -1
c-24 -1 -57 -4 -74 -8z"/>
<path d="M17092 8280 c-111 -24 -212 -103 -258 -204 -38 -82 -40 -195 -5 -273
61 -137 242 -220 419 -193 70 11 196 66 224 97 15 17 13 22 -17 70 l-34 52
-72 -37 c-132 -68 -278 -54 -345 33 -25 33 -44 105 -28 105 5 0 38 -9 74 -20
70 -23 201 -28 258 -11 63 19 121 60 142 101 53 105 -4 222 -129 265 -57 19
-172 27 -229 15z m182 -151 c21 -16 26 -29 24 -52 -4 -41 -44 -69 -108 -75
-55 -5 -186 14 -195 28 -9 15 58 82 100 101 57 26 145 25 179 -2z"/>
<path d="M15530 8205 l0 -64 68 -3 67 -3 3 -187 2 -188 -70 0 -70 0 0 -70 0
-70 223 2 222 3 0 65 0 65 -67 3 -68 3 0 254 0 255 -155 0 -155 0 0 -65z"/>
<path d="M12567 7292 l-67 -68 70 -69 70 -69 70 69 70 69 -67 68 c-37 38 -70
68 -73 68 -3 0 -36 -30 -73 -68z"/>
<path d="M10226 7329 c-75 -18 -161 -67 -213 -122 -92 -97 -127 -196 -126
-357 0 -258 95 -401 299 -455 112 -30 337 -18 447 24 l27 11 0 155 c0 119 4
164 16 193 10 25 13 51 9 80 l-6 42 -185 0 -184 0 0 -85 0 -85 85 0 85 0 0
-85 c0 -102 2 -100 -120 -100 -72 1 -93 5 -135 27 -62 32 -88 59 -117 123 -32
70 -33 238 -2 305 40 86 133 150 218 150 17 0 87 -23 156 -50 68 -27 127 -46
131 -42 4 4 24 37 44 74 l36 67 -88 57 c-54 35 -109 62 -143 71 -62 14 -176
16 -234 2z"/>
<path d="M12207 7323 c-23 -41 -27 -85 -12 -148 12 -53 15 -137 15 -426 l0
-359 90 0 90 0 0 470 0 470 -89 0 c-50 0 -92 -3 -94 -7z"/>
<path d="M11733 7016 c-152 -37 -223 -159 -210 -359 13 -194 105 -278 304
-278 86 0 109 4 186 28 l47 15 0 70 c0 63 -2 69 -17 63 -77 -31 -110 -37 -175
-33 -48 4 -78 12 -96 25 -32 24 -59 68 -64 103 l-3 25 186 3 186 2 12 40 c10
35 8 50 -21 145 -33 104 -34 105 -76 125 -83 39 -169 48 -259 26z m144 -130
c8 -8 24 -87 18 -95 -2 -5 -33 -11 -67 -15 -35 -4 -78 -9 -95 -13 -40 -6 -43
9 -12 68 24 47 68 71 118 65 18 -3 36 -7 38 -10z"/>
<path d="M10802 6767 c3 -247 4 -254 28 -301 33 -65 74 -86 162 -86 73 0 148
23 194 59 32 25 44 20 44 -20 l0 -29 84 0 84 0 12 36 c7 20 9 49 5 67 -4 18
-10 142 -13 277 l-7 245 -90 0 -90 0 -5 -200 c-3 -124 -9 -208 -17 -220 -23
-41 -62 -67 -106 -72 -36 -4 -48 -1 -73 20 l-29 25 -3 226 -4 226 -90 0 -90 0
4 -253z"/>
<path d="M12830 6950 l0 -70 166 -2 167 -3 -167 -202 c-154 -188 -166 -206
-166 -243 l0 -40 295 0 295 0 0 78 0 78 -137 -12 c-76 -7 -156 -13 -178 -13
l-39 -1 36 38 c20 20 96 114 168 207 122 159 130 173 128 210 l-3 40 -282 3
-283 2 0 -70z"/>
<path d="M12532 6972 c-9 -29 -8 -49 3 -92 11 -40 15 -114 15 -272 l0 -218 90
0 90 0 0 310 0 310 -93 0 -94 0 -11 -38z"/>
</g>
</svg>
